# xmcd
#
# Track frame offsets:
#	150
#	23050
#	38725
#	60537
#	77462
#	104010
#	120787
#	138275
#	157412
#	186700
#	208687
#	221112
#
# Disc length: 3213 seconds
# Revision: 0
# Processed by: cddbd v1.5.2PL0 Copyright (c) Steve Scherf et al.
# Submitted via: dBpowerAMP V12.0
#
DISCID=ab0c8b0c
DTITLE=Reverend Dan Smith - Live at Fox Hollow
DYEAR=1992
DGENRE=Blues
TTITLE0=Babylon Is Falling
TTITLE1=Whisper a Prayer
TTITLE2=God Don't Like It
TTITLE3=Blessed Be the Name
TTITLE4=Long Handled Spoon
TTITLE5=Where Shall I Be When the First Trumpet Sounds?
TTITLE6=When Man Sinned
TTITLE7=The Lord Will Make a Way Somehow
TTITLE8=Seminary Versus Calvary
TTITLE9=When Your Time Comes to Die
TTITLE10=Walk Out On the Water
TTITLE11=Every Day Will Be Sunday
EXTD=
EXTT0=
EXTT1=
EXTT2=
EXTT3=
EXTT4=
EXTT5=
EXTT6=
EXTT7=
EXTT8=
EXTT9=
EXTT10=
EXTT11=
PLAYORDER=
